<svg xmlns="http://www.w3.org/2000/svg" xmlns:xlink="http://www.w3.org/1999/xlink" width="240" height="240" x="0" y="0" enable-background="new 0 0 240 240" version="1.1" viewBox="0 0 240 240" xml:space="preserve"><g id="Layer_2"><rect width="240" height="240" fill="#B0E1FF"/></g><g id="Layer_4"><ellipse cx="66.507" cy="23.468" fill="#FFF" rx="28.638" ry="23.454"/><ellipse cx="31.944" cy="30.134" fill="#FFF" rx="26.17" ry="16.788"/><ellipse cx="64.038" cy="48.65" fill="#FFF" rx="32.095" ry="15.06"/><ellipse cx="99.96" cy="37.293" fill="#FFF" rx="22.837" ry="17.035"/><ellipse cx="88.479" cy="20.389" fill="#FFF" rx="30.366" ry="13.461"/><ellipse cx="218.25" cy="52.28" fill="#FFF" rx="28.639" ry="23.454"/><ellipse cx="183.687" cy="58.946" fill="#FFF" rx="26.169" ry="16.788"/><ellipse cx="215.782" cy="77.462" fill="#FFF" rx="32.095" ry="15.06"/><ellipse cx="251.703" cy="66.105" fill="#FFF" rx="22.836" ry="17.035"/><ellipse cx="240.223" cy="49.201" fill="#FFF" rx="30.367" ry="13.461"/><ellipse cx="115.968" cy="115.667" fill="#FFF" rx="28.638" ry="23.454"/><ellipse cx="81.404" cy="122.332" fill="#FFF" rx="26.169" ry="16.789"/><ellipse cx="113.499" cy="140.849" fill="#FFF" rx="32.095" ry="15.06"/><ellipse cx="149.42" cy="129.492" fill="#FFF" rx="22.836" ry="17.035"/><ellipse cx="137.94" cy="112.587" fill="#FFF" rx="30.367" ry="13.462"/><ellipse cx="215.369" cy="184.816" fill="#FFF" rx="28.639" ry="23.454"/><ellipse cx="180.805" cy="191.481" fill="#FFF" rx="26.169" ry="16.788"/><ellipse cx="212.899" cy="209.998" fill="#FFF" rx="32.095" ry="15.059"/><ellipse cx="248.822" cy="198.641" fill="#FFF" rx="22.836" ry="17.035"/><ellipse cx="237.341" cy="181.737" fill="#FFF" rx="30.367" ry="13.463"/><ellipse cx="20.888" cy="186.736" fill="#FFF" rx="28.638" ry="23.454"/><ellipse cx="-13.676" cy="193.401" fill="#FFF" rx="26.17" ry="16.788"/><ellipse cx="18.419" cy="211.918" fill="#FFF" rx="32.095" ry="15.061"/><ellipse cx="54.341" cy="200.562" fill="#FFF" rx="22.837" ry="17.034"/><ellipse cx="42.86" cy="183.657" fill="#FFF" rx="30.366" ry="13.461"/></g><g id="Layer_3"><g><defs><rect id="SVGID_1_" width="32" height="249" x="46" y="100"/></defs><clipPath id="SVGID_2_"><use overflow="visible" xlink:href="#SVGID_1_"/></clipPath><g clip-path="url(#SVGID_2_)"><defs><path id="SVGID_3_" d="M47.047,221.322l-31.084-30.394l-0.032-60.69l31.05-30.297l31.084,30.393l0.033,60.691L47.047,221.322z M78,349H16V192h62V349z"/></defs><clipPath id="SVGID_4_"><use overflow="visible" xlink:href="#SVGID_3_"/></clipPath><rect width="62" height="226" x="16" y="123" fill="#009245" clip-path="url(#SVGID_4_)"/><ellipse cx="47.035" cy="99.579" fill="#C69C6D" clip-path="url(#SVGID_4_)" rx="53.539" ry="37.864"/><ellipse cx="47.015" cy="99.391" fill="#009245" clip-path="url(#SVGID_4_)" rx="15.31" ry="10.829"/></g></g><g><defs><rect id="SVGID_5_" width="30" height="249" x="16" y="100"/></defs><clipPath id="SVGID_6_"><use overflow="visible" xlink:href="#SVGID_5_"/></clipPath><g clip-path="url(#SVGID_6_)"><defs><path id="SVGID_7_" d="M16.045,191.025l0.033-60.691l31.084-30.393l31.051,30.297l-0.033,60.69l-31.084,30.394L16.045,191.025z M16,192h62v157H16V192z"/></defs><clipPath id="SVGID_8_"><use overflow="visible" xlink:href="#SVGID_7_"/></clipPath><rect width="62" height="345" x="16" y="123" fill="#0D723D" clip-path="url(#SVGID_8_)"/><ellipse cx="47.108" cy="99.579" fill="#A67C52" clip-path="url(#SVGID_8_)" rx="53.539" ry="37.864"/><ellipse cx="47.128" cy="99.391" fill="#0D723D" clip-path="url(#SVGID_8_)" rx="15.31" ry="10.829"/></g></g><g><defs><rect id="SVGID_9_" width="37" height="303" x="123" y="53"/></defs><clipPath id="SVGID_10_"><use overflow="visible" xlink:href="#SVGID_9_"/></clipPath><g clip-path="url(#SVGID_10_)"><defs><path id="SVGID_11_" d="M123.156,200.302l-37.644-36.809l-0.04-73.499l37.604-36.69l37.645,36.809l0.039,73.497L123.156,200.302 z M160,356H86V165h74V356z"/></defs><clipPath id="SVGID_12_"><use overflow="visible" xlink:href="#SVGID_11_"/></clipPath><rect width="74" height="274" x="86" y="82" fill="#5267BD" clip-path="url(#SVGID_12_)"/><ellipse cx="123.143" cy="52.864" fill="#C69C6D" clip-path="url(#SVGID_12_)" rx="64.838" ry="45.858"/><ellipse cx="123.118" cy="52.638" fill="#5267BD" clip-path="url(#SVGID_12_)" rx="18.541" ry="13.113"/></g></g><g><defs><rect id="SVGID_13_" width="37" height="303" x="86" y="53"/></defs><clipPath id="SVGID_14_"><use overflow="visible" xlink:href="#SVGID_13_"/></clipPath><g clip-path="url(#SVGID_14_)"><defs><path id="SVGID_15_" d="M85.611,163.609l0.041-73.497l37.645-36.809l37.604,36.69l-0.041,73.499l-37.644,36.809L85.611,163.609z M86,165h75v191H86V165z"/></defs><clipPath id="SVGID_16_"><use overflow="visible" xlink:href="#SVGID_15_"/></clipPath><rect width="75" height="274" x="86" y="82" fill="#42538C" clip-path="url(#SVGID_16_)"/><ellipse cx="123.23" cy="52.864" fill="#A67C52" clip-path="url(#SVGID_16_)" rx="64.838" ry="45.858"/><ellipse cx="123.254" cy="52.638" fill="#42538C" clip-path="url(#SVGID_16_)" rx="18.541" ry="13.113"/></g></g><g><defs><rect id="SVGID_17_" width="31" height="249" x="198" y="100"/></defs><clipPath id="SVGID_18_"><use overflow="visible" xlink:href="#SVGID_17_"/></clipPath><g clip-path="url(#SVGID_18_)"><defs><path id="SVGID_19_" d="M198.32,221.276l-31.094-30.403l-0.033-60.713l31.061-30.308l31.096,30.405l0.033,60.711L198.32,221.276 z M229,349h-62V192h62V349z"/></defs><clipPath id="SVGID_20_"><use overflow="visible" xlink:href="#SVGID_19_"/></clipPath><rect width="62" height="226" x="167" y="123" fill="#E74C3C" clip-path="url(#SVGID_20_)"/><ellipse cx="198.309" cy="99.49" fill="#C69C6D" clip-path="url(#SVGID_20_)" rx="53.557" ry="37.879"/><ellipse cx="198.289" cy="99.302" fill="#E74C3C" clip-path="url(#SVGID_20_)" rx="15.315" ry="10.833"/></g></g><g><defs><rect id="SVGID_21_" width="30" height="249" x="168" y="100"/></defs><clipPath id="SVGID_22_"><use overflow="visible" xlink:href="#SVGID_21_"/></clipPath><g clip-path="url(#SVGID_22_)"><defs><path id="SVGID_23_" d="M167.308,190.969l0.033-60.711l31.095-30.405l31.062,30.308l-0.032,60.713l-31.096,30.403 L167.308,190.969z M168,192h62v157h-62V192z"/></defs><clipPath id="SVGID_24_"><use overflow="visible" xlink:href="#SVGID_23_"/></clipPath><rect width="62" height="226" x="168" y="123" fill="#C0392B" clip-path="url(#SVGID_24_)"/><ellipse cx="198.382" cy="99.49" fill="#A67C52" clip-path="url(#SVGID_24_)" rx="53.558" ry="37.879"/><ellipse cx="198.402" cy="99.302" fill="#C0392B" clip-path="url(#SVGID_24_)" rx="15.315" ry="10.833"/></g></g></g></svg>