<svg xmlns="http://www.w3.org/2000/svg" xmlns:xlink="http://www.w3.org/1999/xlink" width="26" height="285.769"><title>Inkscape Icon Theme</title><defs><linearGradient><stop offset="0" stop-color="#fff"/></linearGradient><linearGradient id="a" gradientTransform="matrix(.677 -4.54 -2.4 -.314 -2677.799 -5715.577)"><stop offset="0" stop-color="#fff"/></linearGradient><linearGradient gradientTransform="translate(6 -19)"><stop offset="0" stop-color="#fff"/></linearGradient><linearGradient gradientTransform="translate(0 796.724)"><stop offset="0" stop-color="#fff"/></linearGradient><linearGradient gradientTransform="translate(0 -12)"><stop offset="0" stop-color="#fff"/></linearGradient><linearGradient gradientTransform="translate(0 -12)"><stop offset="0" stop-color="#fff"/></linearGradient><linearGradient gradientTransform="translate(0 -12)"><stop offset="0" stop-color="#fff"/></linearGradient><linearGradient gradientTransform="translate(0 -12)"><stop offset="0" stop-color="#fff"/></linearGradient><linearGradient gradientTransform="translate(0 -12)"><stop offset="0" stop-color="#fff"/></linearGradient><linearGradient gradientTransform="translate(0 -12)"><stop offset="0" stop-color="#fff"/></linearGradient><linearGradient gradientTransform="translate(0 -12)"><stop offset="0" stop-color="#fff"/></linearGradient><linearGradient gradientTransform="translate(0 -12)"><stop offset="0" stop-color="#fff"/></linearGradient><linearGradient gradientTransform="translate(0 -12)"><stop offset="0" stop-color="#fff"/></linearGradient><linearGradient gradientTransform="translate(0 -12)"><stop offset="0" stop-color="#fff"/></linearGradient><linearGradient><stop offset="0"/><stop offset=".351" stop-color="#7f7f7f"/><stop offset=".597" stop-color="#bfbfbf"/><stop offset=".784" stop-color="#dfdfdf"/><stop offset="1" stop-color="#fff"/></linearGradient><linearGradient id="F" x1="297.543" x2="310.152" y1="984.31" y2="984.31" gradientTransform="scale(.991 1.009)" gradientUnits="userSpaceOnUse" xlink:href="#a"/><linearGradient id="G" x1="295.539" x2="305.495" y1="980.233" y2="980.233" gradientTransform="scale(.98 1.021)" gradientUnits="userSpaceOnUse" xlink:href="#a"/><linearGradient id="H" x1="129.621" x2="134.204" y1="2319.613" y2="2319.613" gradientTransform="scale(2.291 .436)" gradientUnits="userSpaceOnUse" xlink:href="#a"/><linearGradient id="I" x1="172.766" x2="176.083" y1="1678.813" y2="1678.813" gradientTransform="scale(1.658 .603)" gradientUnits="userSpaceOnUse" xlink:href="#a"/><linearGradient id="y" x1="441.59" x2="450.422" y1="591.292" y2="591.292" gradientTransform="scale(.679 1.472)" gradientUnits="userSpaceOnUse" xlink:href="#a"/><linearGradient id="z" x1="381.615" x2="386.933" y1="665.864" y2="665.864" gradientTransform="scale(.76 1.316)" gradientUnits="userSpaceOnUse" xlink:href="#a"/><linearGradient id="E" x1="267.535" x2="275.017" y1="945.404" y2="945.404" gradientTransform="scale(1.069 .935)" gradientUnits="userSpaceOnUse" xlink:href="#a"/><linearGradient id="u" x1="300.752" x2="319.707" y1="794.551" y2="794.551" gradientTransform="scale(.948 1.055)" gradientUnits="userSpaceOnUse" xlink:href="#a"/><linearGradient id="v" x1="152" x2="154" y1="1716.724" y2="1716.724" gradientTransform="scale(2 .5)" gradientUnits="userSpaceOnUse" xlink:href="#a"/><linearGradient id="w" x1="152" x2="154" y1="1674.724" y2="1674.724" gradientTransform="scale(2 .5)" gradientUnits="userSpaceOnUse" xlink:href="#a"/><linearGradient id="x" x1="964.495" x2="970.819" y1="265.113" y2="265.113" gradientTransform="scale(.316 3.162)" gradientUnits="userSpaceOnUse" xlink:href="#a"/><linearGradient id="n" x1="380.103" x2="384.65" y1="617.727" y2="617.727" gradientTransform="scale(.783 1.277)" gradientUnits="userSpaceOnUse" xlink:href="#a"/><linearGradient id="o" x1="322.641" x2="333.746" y1="715.947" y2="715.947" gradientTransform="scale(.925 1.082)" gradientUnits="userSpaceOnUse" xlink:href="#a"/><linearGradient id="p" x1="246.683" x2="251.398" y1="949.689" y2="949.689" gradientTransform="scale(1.209 .827)" gradientUnits="userSpaceOnUse" xlink:href="#a"/><linearGradient id="q" x1="361.133" x2="376.233" y1="616.196" y2="616.196" gradientTransform="scale(.795 1.258)" gradientUnits="userSpaceOnUse" xlink:href="#a"/><linearGradient id="r" x1="286" x2="290" y1="793.362" y2="793.362" gradientUnits="userSpaceOnUse" xlink:href="#a"/><linearGradient id="s" x1="95.19" x2="98.552" y1="2393.236" y2="2393.236" gradientTransform="scale(3.009 .332)" gradientUnits="userSpaceOnUse" xlink:href="#a"/><linearGradient id="t" x1="286" x2="290" y1="262" y2="262" gradientUnits="userSpaceOnUse" xlink:href="#a"/><linearGradient id="k" x1="-144.244" x2="-139.667" y1="-40.212" y2="-40.212" gradientTransform="scale(1.031 .97)" gradientUnits="userSpaceOnUse" xlink:href="#a"/><linearGradient id="l" x1="82" x2="94" y1="181" y2="181" gradientUnits="userSpaceOnUse" xlink:href="#a"/><linearGradient id="m" x1="323.594" x2="335.603" y1="654.704" y2="654.704" gradientTransform="scale(.881 1.135)" gradientUnits="userSpaceOnUse" xlink:href="#a"/><linearGradient id="j" x1="286" x2="308" y1="652.362" y2="652.362" gradientUnits="userSpaceOnUse" xlink:href="#a"/><linearGradient id="i" x1="287" x2="307" y1="110" y2="110" gradientUnits="userSpaceOnUse" xlink:href="#a"/><linearGradient id="c" x1="286.658" x2="307.254" y1="557.767" y2="557.767" gradientTransform="scale(1.001 .999)" gradientUnits="userSpaceOnUse" xlink:href="#a"/><linearGradient id="d" x1="289" x2="293" y1="559.362" y2="559.362" gradientUnits="userSpaceOnUse" xlink:href="#a"/><linearGradient id="f" x1="305.519" x2="319.029" y1="543.083" y2="543.083" gradientTransform="scale(.962 1.039)" gradientUnits="userSpaceOnUse" xlink:href="#a"/><linearGradient id="h" x1="286" x2="289" y1="575.362" y2="575.362" gradientUnits="userSpaceOnUse" xlink:href="#a"/><linearGradient id="b" x1="360.941" x2="377.066" y1="426.785" y2="426.785" gradientTransform="scale(.806 1.24)" gradientUnits="userSpaceOnUse" xlink:href="#a"/><linearGradient x2="1" gradientTransform="translate(.31 10.254)" gradientUnits="userSpaceOnUse" xlink:href="#a"/><linearGradient id="J" x2="1" gradientUnits="userSpaceOnUse" xlink:href="#a"/><linearGradient id="K" x2="1" gradientUnits="userSpaceOnUse" xlink:href="#a"/><linearGradient id="L" x2="1" gradientUnits="userSpaceOnUse" xlink:href="#a"/><linearGradient x1="272.211" x2="279.693" y1="928.3" y2="928.3" gradientTransform="scale(1.069 .935)" gradientUnits="userSpaceOnUse" xlink:href="#a"/><linearGradient x1="286" x2="289" y1="575.362" y2="575.362" gradientUnits="userSpaceOnUse" xlink:href="#a"/><linearGradient x1="9.83" x2="17.312" y1="219.695" y2="219.695" gradientTransform="scale(1.069 .935)" gradientUnits="userSpaceOnUse" xlink:href="#a"/><linearGradient x1="272.211" x2="279.693" y1="928.3" y2="928.3" gradientTransform="scale(1.069 .935)" gradientUnits="userSpaceOnUse" xlink:href="#a"/><linearGradient id="e" x1="286" x2="289" y1="575.362" y2="575.362" gradientUnits="userSpaceOnUse" xlink:href="#a"/><linearGradient id="A" x1="9.83" x2="17.312" y1="219.695" y2="219.695" gradientTransform="scale(1.069 .935)" gradientUnits="userSpaceOnUse" xlink:href="#a"/><linearGradient id="C" x1="272.211" x2="279.693" y1="928.3" y2="928.3" gradientTransform="scale(1.069 .935)" gradientUnits="userSpaceOnUse" xlink:href="#a"/></defs><g transform="matrix(.925 0 0 .925 .182 -714.634)"><use width="1250" height="1250" transform="matrix(.996 0 0 .998 70.854 289.66)" xlink:href="#g5796"/><use width="1250" height="1250" transform="matrix(.988 0 0 .998 71.431 310.221)" xlink:href="#g5796"/><use width="1250" height="1250" transform="translate(233.282 665.083)" xlink:href="#rect4442"/><g transform="matrix(1.161 0 0 1.161 -330.812 160.459)"><rect width="24" height="24" x="284.969" y="527.331" fill="none" color="#000"/><path fill="url(#b)" d="m291 530.771v15.118h1.296l2.592-5.253 5.111 8.726h4l-6.519-9.927h6.118v-1.618l-12.599-8.456z"/></g><g transform="matrix(1.15 0 0 1.15 -327.809 190.018)"><rect width="24" height="24" x="285" y="555.401" fill="none" color="#000"/><path fill="none" stroke="url(#c)" d="m287.5 577.401c-.5-8 .636-12.357 3.965-15.402 2.938-2.688 7.535-4.598 15.535-4.098"/><rect width="4" height="4" x="289" y="559.362" fill="url(#d)" fill-rule="evenodd" color="#000"/><rect id="g" width="3" height="3" x="286" y="575.362" fill="url(#e)" fill-rule="evenodd" color="#000"/><path fill="url(#f)" fill-rule="evenodd" d="m294 564.362l7.8 14.039 5.2-5.265-13-8.774z"/><use width="1250" height="1250" fill="url(#h)" transform="translate(19 -19)" xlink:href="#g"/></g><g transform="matrix(1.161 0 0 1.161 -330.848 164.905)"><rect width="24" height="24" x="285" y="620.362" fill="none"/><path fill="url(#i)" d="m287 622.362v20h20v-20h-20zm2 2h16v16h-16v-16z"/></g><g transform="matrix(1.161 0 0 1.161 -330.848 100.821)"><rect width="24" height="24" x="285" y="651.362" fill="none"/><path fill="url(#j)" d="m297 652.362c-6.075 0-11 4.925-11 11s4.925 11 11 11 11-4.925 11-11-4.925-11-11-11zm0 1.833c5.063 0 9.167 4.104 9.167 9.167s-4.104 9.167-9.167 9.167-9.167-4.104-9.167-9.167 4.104-9.167 9.167-9.167z"/></g><g><g transform="matrix(1.15 0 0 1.141 -327.811 65.014) matrix(1.5 0 0 1.507 163.501 476.643)"><path fill="url(#k)" fill-rule="evenodd" d="m94.156 178l-1.875 2c1.329.026 2.665 1.212 2.719 2.438l2-2c-.055-1.265-1.474-2.488-2.844-2.438z"/><rect width="16" height="16" x="81" y="177" fill="none" rx="0" ry="0"/><path fill="url(#l)" fill-rule="evenodd" d="m83.631 189.036l7.52-8.034c1.369-.051 2.794 1.163 2.849 2.429l-7.49 7.794-4.51 1.776z"/></g><path fill="none" stroke="url(#m)" stroke-linecap="round" stroke-linejoin="round" stroke-width="1.537" d="m288.373 756.229c-5.786-2.751-.318-1.469 1.015-2.971.843-.95-.549-2.09-1.322-2.709-.812-.651-1.638-1.724-1.736-2.764-.134-1.422 1.135-2.513 1.933-2.963.84-.474 2.185-.836 3.397-.633 1.305.218 2.707.944 3.149 1.389" transform="matrix(1.15 0 0 1.141 -327.811 65.014)"/></g><g transform="matrix(1.16 0 0 1.167 -330.783 38.073)"><path fill="url(#n)" fill-rule="evenodd" d="m299.311 788.817l-1.584 4.509c-.419 1.225 1.3 1.879 1.736.609l1.76-4.475z"/><path fill="url(#o)" fill-rule="evenodd" d="m298.305 782.761l.793 1.181 5.924 2.423 1.561-.509 1.989-5.502c-2.5 0-.5-6-7-6l-3.268 8.408z"/><path fill="url(#p)" fill-rule="evenodd" d="m299 785.362l-.702 2 5 1.899.702-1.899z"/><rect width="24" height="23.863" x="285" y="774.362" fill="none" color="#000"/><path fill="none" stroke="url(#q)" stroke-width=".958" d="m289.157 793.883c11.661-1.939-1.678-18.042-1.678-18.042h11.042"/><path fill="url(#r)" fill-rule="evenodd" d="m286 793.362h4v4h-4z" color="#000"/><path fill="none" stroke="url(#s)" stroke-width="1.117" d="m287 795.88h9"/><rect width="4" height="4" x="286" y="262" fill="url(#t)" transform="translate(0 512.362)"/></g><g transform="matrix(1.161 0 0 1.161 -330.848 -1.474)"><rect width="24" height="24" x="285" y="836.362" fill="none"/><path fill="url(#u)" d="m291.107 838.362l-6.071 20h3.964l1.457-5h6.585l1.993 5h3.964l-6.607-20zm2.643 4.5l2.672 7.5h-5.286z"/><path fill="url(#v)" d="m304 858.362h4v1h-1l-1-1-1 1h-1z"/><path fill="url(#w)" d="m304 837.362h1l1 1 1-1h1v1h-4z"/><rect width="2" height="20" x="305" y="838.362" fill="url(#x)"/></g><g transform="matrix(1.161 0 0 1.161 -330.848 -9.348)"><path style="text-indent:0;text-align:start;line-height:normal;text-transform:none;block-progression:tb;-inkscape-font-specification:Sans" fill="url(#y)" d="M300.459 870.364" color="#000" enable-background="accumulate" font-family="Sans" overflow="visible"/><path style="text-indent:0;text-align:start;line-height:normal;text-transform:none;block-progression:tb;-inkscape-font-specification:Sans" fill="url(#z)" d="M293.483 876.363" color="#000" enable-background="accumulate" font-family="Sans" overflow="visible"/><rect id="B" width="7.999" height="6.999" x="10.508" y="205.51" fill="url(#A)" color="#000" transform="translate(280.492 662.852)"/><use id="D" width="1250" height="1250" fill="url(#C)" transform="translate(-4.999 16)" xlink:href="#B"/><use width="1250" height="1250" fill="url(#E)" transform="translate(15 .001)" xlink:href="#D"/><rect width="24" height="24" x="285" y="867.362" fill="none"/></g><g transform="matrix(1.161 0 0 1.161 -330.848 -125.16)"><rect width="24" height="24" x="285" y="991.362" fill="none" rx=".996" ry="0"/><path fill="url(#F)" d="m301.734 992.862c-.118.024-.239.104-.328.188l-6.422 6 6.047 6.516 6.234-5.813c.355-.332.268-1.024-.188-1.547l-4.172-4.828c-.341-.392-.817-.588-1.172-.516z"/><path fill="url(#G)" d="m293.25 1000.69l-3.516 3.281c-.355.332-.314 1.024.141 1.547l4.219 4.828c.455.523 1.098.66 1.453.328l3.703-3.469-6-6.516z"/><path fill="url(#H)" d="m298.05 1012.362c-.582 0-1.05.446-1.05 1s.468 1 1.05 1h9.45v-2h-9.45z"/><path fill="url(#I)" d="m290.717 1012.362c.711 0 1.283.446 1.283 1s-.572 1-1.283 1h-4.217v-2h4.217z"/></g><use width="1250" height="1250" transform="matrix(.693 0 0 .71 -83.504 365.24)" xlink:href="#g5772"/><use width="1250" height="1250" transform="matrix(.696 0 0 .742 -99.51 359.827)" xlink:href="#g5772"/><use width="1250" height="1250" transform="matrix(.696 0 0 .742 -55.51 357.327)" xlink:href="#g5772"/><use width="1250" height="1250" transform="matrix(.629 0 0 1.162 19.249 255.105)" xlink:href="#g5772"/><use width="1250" height="1250" transform="translate(772.32 383.918)" xlink:href="#rect10675"/><use width="1250" height="1250" transform="translate(773.286 400.641)" xlink:href="#use5758"/><use width="1250" height="1250" transform="translate(769.271 324.563)" xlink:href="#g6043"/><use width="1250" height="1250" transform="translate(814.303 384.865)" xlink:href="#rect10675"/><use width="1250" height="1250" transform="translate(802.303 396.865)" xlink:href="#rect10675"/><use width="1250" height="1250" transform="translate(788.32 318.521)" xlink:href="#g6043"/><use width="1250" height="1250" transform="translate(833.352 378.823)" xlink:href="#rect10675"/><use width="1250" height="1250" transform="translate(821.352 390.823)" xlink:href="#rect10675"/><use width="1250" height="1250" stroke="url(#J)" transform="matrix(1.138 0 0 1.14 580.987 388.472)" xlink:href="#use5756-0-3"/><use width="1250" height="1250" stroke="url(#K)" transform="matrix(1.138 0 0 1.14 575.987 395.701)" xlink:href="#use5756-0-3"/><use width="1250" height="1250" stroke="url(#L)" transform="matrix(1.138 0 0 1.14 588.58 399.351)" xlink:href="#use5756-0-3"/><g fill="none" stroke="#fff" stroke-linecap="round" stroke-linejoin="round" stroke-width="19.346" transform="matrix(.089 0 0 .087 -4.581 798.927)"><line x1="343.4" x2="343.7" y1="161.9" y2="161.3"/><path d="m265.2 330.9c6.1-12.3 13.2-25.2 21.6-38.4 8.3-13.2 16.3-32.3 24.1-57.6 7.7-25.2 12.5-38.6 14.2-40.1l18.3-32.7v-.2"/><polyline points="343.4 161.9 343.4 161.9 343.7 161.3"/><path d="m117.2 187.5c-2.4-5.3-6.9-10.7-13.6-15.8-7-5.4-13.1-8.1-18.2-8.1-9 0-15.8 3.2-20.4 9.6-3.9 5.4-5.9 12.5-5.9 21.3 0 6.7 3.7 15.5 10.9 26.3 8.2 12.2 19.2 24 33 35.4 11.7 9.5 20.8 19.8 27.3 30.9 6.5 10.9 9.8 21.3 9.8 31 0 .8-.2 3-.6 6.5-.3 3.3-.5 5.2-.7 5.9"/><path d="m117.2 187.5c.6 1.8 4 9.7 10.3 23.3"/><path d="m343.7 161.3l11.2-16.6c.5-1.2 1.4-4.4 2.5-9.6.5-7.3-1.7-13.5-6.8-18.9-4.9-5-11-7.9-18.2-8.5-5-.4-9.3.8-13.1 3.5-3.5 3.3-6.4 6-8.8 8l-32.7 44.7 30-87c.1-.3.3-1.3.6-3.2.2-1.8.4-3.1.4-3.5 0-7-2.5-13-7.4-18.1-5.1-5.3-11.7-8-19.7-8-4.9 0-9.5 1.6-13.9 4.8-4.8 3.4-8.2 8-10.2 13.7l-31.5 86.5c-.8-12.8-2.1-33.3-4-61.7-1.2-16.1-1.7-25.8-1.4-28.9.4-6.4-1.4-12.6-5.5-18.6-5-7.3-11.9-10.9-20.8-10.9-5 0-9.6 1.1-13.7 3.5-6 3.4-9.9 8.8-11.7 16.3l-1.8 98.9-31.557-72.773c-1.488-4.088-2.943-8.827-8.043-13.427-5.3-4.8-11-7.1-17.1-7.1-5.6 0-10.9 1.4-15.9 4.3-7.6 4.5-11.3 11.5-11.3 21.1 0 1.3.2 3.5.6 6.3l33.3 101.4"/></g><g fill="none" stroke="#fff" stroke-width="2.456"><path d="M26.722 1054.467l-25.739 25.746"/><path d="m1.244 1054.728l25.217 25.223"/></g></g></svg>